<mxfile host="Electron" modified="2023-07-29T08:48:00.798Z" agent="Mozilla/5.0 (Windows NT 10.0; Win64; x64) AppleWebKit/537.36 (KHTML, like Gecko) draw.io/21.6.5 Chrome/114.0.5735.243 Electron/25.3.1 Safari/537.36" etag="fcvQRPqJ9m-QJ8OdusRD" version="21.6.5" type="device">
  <diagram name="Pagina-1" id="tbRzEaHtZ7UUo4ROZUXy">
    <mxGraphModel dx="1843" dy="607" grid="1" gridSize="10" guides="1" tooltips="1" connect="1" arrows="1" fold="1" page="1" pageScale="1" pageWidth="827" pageHeight="1169" math="0" shadow="0">
      <root>
        <mxCell id="0" />
        <mxCell id="1" parent="0" />
        <mxCell id="Lw0NRX1pX2Uq201TsK41-1" value="&lt;font style=&quot;font-size: 14px;&quot;&gt;Associate&lt;/font&gt;" style="rounded=0;whiteSpace=wrap;html=1;fillColor=#f5f5f5;gradientColor=#b3b3b3;strokeColor=#666666;" parent="1" vertex="1">
          <mxGeometry x="560" y="270" width="120" height="60" as="geometry" />
        </mxCell>
        <mxCell id="Lw0NRX1pX2Uq201TsK41-2" value="&lt;font style=&quot;font-size: 14px;&quot;&gt;Feature&lt;/font&gt;" style="rounded=0;whiteSpace=wrap;html=1;fillColor=#f5f5f5;gradientColor=#b3b3b3;strokeColor=#666666;" parent="1" vertex="1">
          <mxGeometry x="430" y="100" width="120" height="60" as="geometry" />
        </mxCell>
        <mxCell id="Lw0NRX1pX2Uq201TsK41-4" value="&lt;font style=&quot;font-size: 14px;&quot;&gt;Field&lt;/font&gt;" style="rounded=0;whiteSpace=wrap;html=1;fillColor=#f5f5f5;gradientColor=#b3b3b3;strokeColor=#666666;" parent="1" vertex="1">
          <mxGeometry x="160" y="270" width="120" height="60" as="geometry" />
        </mxCell>
        <mxCell id="Lw0NRX1pX2Uq201TsK41-5" value="&lt;font style=&quot;font-size: 14px;&quot;&gt;Fields&lt;/font&gt;" style="rounded=0;whiteSpace=wrap;html=1;fillColor=#f5f5f5;gradientColor=#b3b3b3;strokeColor=#666666;" parent="1" vertex="1">
          <mxGeometry x="160" y="100" width="120" height="60" as="geometry" />
        </mxCell>
        <mxCell id="Lw0NRX1pX2Uq201TsK41-6" value="Booking" style="rhombus;whiteSpace=wrap;html=1;fillColor=#f5f5f5;gradientColor=#b3b3b3;strokeColor=#666666;" parent="1" vertex="1">
          <mxGeometry x="380" y="260" width="80" height="80" as="geometry" />
        </mxCell>
        <mxCell id="Lw0NRX1pX2Uq201TsK41-8" value="" style="endArrow=none;html=1;rounded=0;entryX=0.5;entryY=1;entryDx=0;entryDy=0;exitX=0.5;exitY=0;exitDx=0;exitDy=0;" parent="1" source="Lw0NRX1pX2Uq201TsK41-4" target="Lw0NRX1pX2Uq201TsK41-5" edge="1">
          <mxGeometry width="50" height="50" relative="1" as="geometry">
            <mxPoint x="390" y="280" as="sourcePoint" />
            <mxPoint x="440" y="230" as="targetPoint" />
          </mxGeometry>
        </mxCell>
        <mxCell id="Lw0NRX1pX2Uq201TsK41-9" value="" style="endArrow=none;html=1;rounded=0;entryX=0.925;entryY=-0.017;entryDx=0;entryDy=0;exitX=0;exitY=0.5;exitDx=0;exitDy=0;entryPerimeter=0;" parent="1" source="Lw0NRX1pX2Uq201TsK41-2" target="Lw0NRX1pX2Uq201TsK41-4" edge="1">
          <mxGeometry width="50" height="50" relative="1" as="geometry">
            <mxPoint x="310" y="230" as="sourcePoint" />
            <mxPoint x="310" y="120" as="targetPoint" />
          </mxGeometry>
        </mxCell>
        <mxCell id="Lw0NRX1pX2Uq201TsK41-10" value="" style="endArrow=none;html=1;rounded=0;exitX=1;exitY=0.5;exitDx=0;exitDy=0;entryX=0;entryY=0.5;entryDx=0;entryDy=0;" parent="1" source="Lw0NRX1pX2Uq201TsK41-4" target="Lw0NRX1pX2Uq201TsK41-6" edge="1">
          <mxGeometry width="50" height="50" relative="1" as="geometry">
            <mxPoint x="390" y="280" as="sourcePoint" />
            <mxPoint x="440" y="230" as="targetPoint" />
          </mxGeometry>
        </mxCell>
        <mxCell id="Lw0NRX1pX2Uq201TsK41-11" value="" style="endArrow=none;html=1;rounded=0;exitX=1;exitY=0.5;exitDx=0;exitDy=0;entryX=0;entryY=0.5;entryDx=0;entryDy=0;" parent="1" edge="1">
          <mxGeometry width="50" height="50" relative="1" as="geometry">
            <mxPoint x="460" y="299.5" as="sourcePoint" />
            <mxPoint x="560" y="299.5" as="targetPoint" />
          </mxGeometry>
        </mxCell>
        <mxCell id="Lw0NRX1pX2Uq201TsK41-13" value="" style="ellipse;whiteSpace=wrap;html=1;aspect=fixed;" parent="1" vertex="1">
          <mxGeometry x="250" y="50" width="20" height="20" as="geometry" />
        </mxCell>
        <mxCell id="Lw0NRX1pX2Uq201TsK41-14" value="" style="ellipse;whiteSpace=wrap;html=1;aspect=fixed;" parent="1" vertex="1">
          <mxGeometry x="90" y="110" width="20" height="20" as="geometry" />
        </mxCell>
        <mxCell id="Lw0NRX1pX2Uq201TsK41-15" value="" style="endArrow=none;html=1;rounded=0;exitX=1;exitY=0.5;exitDx=0;exitDy=0;" parent="1" source="Lw0NRX1pX2Uq201TsK41-14" edge="1">
          <mxGeometry width="50" height="50" relative="1" as="geometry">
            <mxPoint x="110" y="170" as="sourcePoint" />
            <mxPoint x="160" y="120" as="targetPoint" />
          </mxGeometry>
        </mxCell>
        <mxCell id="Lw0NRX1pX2Uq201TsK41-16" value="&lt;font style=&quot;font-size: 12px;&quot;&gt;id&lt;/font&gt;" style="text;html=1;align=center;verticalAlign=middle;resizable=0;points=[];autosize=1;strokeColor=none;fillColor=none;" parent="1" vertex="1">
          <mxGeometry x="60" y="105" width="30" height="30" as="geometry" />
        </mxCell>
        <mxCell id="Lw0NRX1pX2Uq201TsK41-21" value="" style="endArrow=none;html=1;rounded=0;exitX=0.85;exitY=0.05;exitDx=0;exitDy=0;exitPerimeter=0;entryX=0.5;entryY=1;entryDx=0;entryDy=0;" parent="1" source="Lw0NRX1pX2Uq201TsK41-5" target="Lw0NRX1pX2Uq201TsK41-13" edge="1">
          <mxGeometry width="50" height="50" relative="1" as="geometry">
            <mxPoint x="390" y="180" as="sourcePoint" />
            <mxPoint x="262" y="60" as="targetPoint" />
          </mxGeometry>
        </mxCell>
        <mxCell id="Lw0NRX1pX2Uq201TsK41-23" value="" style="endArrow=none;html=1;rounded=0;" parent="1" edge="1">
          <mxGeometry width="50" height="50" relative="1" as="geometry">
            <mxPoint x="180" y="100" as="sourcePoint" />
            <mxPoint x="180" y="70" as="targetPoint" />
          </mxGeometry>
        </mxCell>
        <mxCell id="Lw0NRX1pX2Uq201TsK41-24" value="" style="ellipse;whiteSpace=wrap;html=1;aspect=fixed;" parent="1" vertex="1">
          <mxGeometry x="170" y="50" width="20" height="20" as="geometry" />
        </mxCell>
        <mxCell id="Lw0NRX1pX2Uq201TsK41-25" value="&lt;font style=&quot;font-size: 12px;&quot;&gt;open&lt;/font&gt;" style="text;html=1;align=center;verticalAlign=middle;resizable=0;points=[];autosize=1;strokeColor=none;fillColor=none;" parent="1" vertex="1">
          <mxGeometry x="155" y="20" width="50" height="30" as="geometry" />
        </mxCell>
        <mxCell id="Lw0NRX1pX2Uq201TsK41-26" value="&lt;font style=&quot;font-size: 12px;&quot;&gt;close&lt;br&gt;&lt;br&gt;&lt;/font&gt;" style="text;html=1;align=center;verticalAlign=middle;resizable=0;points=[];autosize=1;strokeColor=none;fillColor=none;" parent="1" vertex="1">
          <mxGeometry x="235" y="25" width="50" height="40" as="geometry" />
        </mxCell>
        <mxCell id="Lw0NRX1pX2Uq201TsK41-27" value="" style="ellipse;whiteSpace=wrap;html=1;aspect=fixed;" parent="1" vertex="1">
          <mxGeometry x="530" y="50" width="20" height="20" as="geometry" />
        </mxCell>
        <mxCell id="Lw0NRX1pX2Uq201TsK41-28" value="" style="ellipse;whiteSpace=wrap;html=1;aspect=fixed;" parent="1" vertex="1">
          <mxGeometry x="590" y="130" width="20" height="20" as="geometry" />
        </mxCell>
        <mxCell id="Lw0NRX1pX2Uq201TsK41-29" value="" style="ellipse;whiteSpace=wrap;html=1;aspect=fixed;" parent="1" vertex="1">
          <mxGeometry x="590" y="100" width="20" height="20" as="geometry" />
        </mxCell>
        <mxCell id="Lw0NRX1pX2Uq201TsK41-30" value="" style="endArrow=none;html=1;rounded=0;entryX=0.5;entryY=1;entryDx=0;entryDy=0;exitX=0.917;exitY=0.033;exitDx=0;exitDy=0;exitPerimeter=0;" parent="1" source="Lw0NRX1pX2Uq201TsK41-2" target="Lw0NRX1pX2Uq201TsK41-27" edge="1">
          <mxGeometry width="50" height="50" relative="1" as="geometry">
            <mxPoint x="390" y="180" as="sourcePoint" />
            <mxPoint x="440" y="130" as="targetPoint" />
          </mxGeometry>
        </mxCell>
        <mxCell id="Lw0NRX1pX2Uq201TsK41-31" value="" style="endArrow=none;html=1;rounded=0;entryX=0;entryY=0.5;entryDx=0;entryDy=0;exitX=0.992;exitY=0.15;exitDx=0;exitDy=0;exitPerimeter=0;" parent="1" source="Lw0NRX1pX2Uq201TsK41-2" target="Lw0NRX1pX2Uq201TsK41-29" edge="1">
          <mxGeometry width="50" height="50" relative="1" as="geometry">
            <mxPoint x="540.5" y="101" as="sourcePoint" />
            <mxPoint x="539.5" y="70" as="targetPoint" />
          </mxGeometry>
        </mxCell>
        <mxCell id="Lw0NRX1pX2Uq201TsK41-32" value="" style="endArrow=none;html=1;rounded=0;entryX=0;entryY=0.5;entryDx=0;entryDy=0;exitX=1.025;exitY=0.633;exitDx=0;exitDy=0;exitPerimeter=0;" parent="1" source="Lw0NRX1pX2Uq201TsK41-2" target="Lw0NRX1pX2Uq201TsK41-28" edge="1">
          <mxGeometry width="50" height="50" relative="1" as="geometry">
            <mxPoint x="490.5" y="100" as="sourcePoint" />
            <mxPoint x="489.5" y="69" as="targetPoint" />
          </mxGeometry>
        </mxCell>
        <mxCell id="Lw0NRX1pX2Uq201TsK41-33" value="&lt;font style=&quot;font-size: 12px;&quot;&gt;indoor&lt;/font&gt;" style="text;html=1;align=center;verticalAlign=middle;resizable=0;points=[];autosize=1;strokeColor=none;fillColor=none;" parent="1" vertex="1">
          <mxGeometry x="540" y="40" width="60" height="30" as="geometry" />
        </mxCell>
        <mxCell id="Lw0NRX1pX2Uq201TsK41-36" value="&lt;font style=&quot;font-size: 12px;&quot;&gt;heating&lt;/font&gt;" style="text;html=1;align=center;verticalAlign=middle;resizable=0;points=[];autosize=1;strokeColor=none;fillColor=none;" parent="1" vertex="1">
          <mxGeometry x="605" y="125" width="60" height="30" as="geometry" />
        </mxCell>
        <mxCell id="Lw0NRX1pX2Uq201TsK41-38" value="ac" style="text;html=1;align=center;verticalAlign=middle;resizable=0;points=[];autosize=1;strokeColor=none;fillColor=none;" parent="1" vertex="1">
          <mxGeometry x="600" y="95" width="40" height="30" as="geometry" />
        </mxCell>
        <mxCell id="Lw0NRX1pX2Uq201TsK41-46" value="" style="ellipse;whiteSpace=wrap;html=1;aspect=fixed;" parent="1" vertex="1">
          <mxGeometry x="440" y="50" width="20" height="20" as="geometry" />
        </mxCell>
        <mxCell id="Lw0NRX1pX2Uq201TsK41-47" value="" style="endArrow=none;html=1;rounded=0;entryX=0.5;entryY=1;entryDx=0;entryDy=0;exitX=0.917;exitY=0.033;exitDx=0;exitDy=0;exitPerimeter=0;" parent="1" edge="1">
          <mxGeometry width="50" height="50" relative="1" as="geometry">
            <mxPoint x="449.5" y="102" as="sourcePoint" />
            <mxPoint x="449.5" y="70" as="targetPoint" />
          </mxGeometry>
        </mxCell>
        <mxCell id="Lw0NRX1pX2Uq201TsK41-48" value="id" style="text;html=1;align=center;verticalAlign=middle;resizable=0;points=[];autosize=1;strokeColor=none;fillColor=none;" parent="1" vertex="1">
          <mxGeometry x="435" y="28" width="30" height="30" as="geometry" />
        </mxCell>
        <mxCell id="Lw0NRX1pX2Uq201TsK41-49" value="1" style="text;html=1;align=center;verticalAlign=middle;resizable=0;points=[];autosize=1;strokeColor=none;fillColor=none;" parent="1" vertex="1">
          <mxGeometry x="265" y="233" width="30" height="30" as="geometry" />
        </mxCell>
        <mxCell id="Lw0NRX1pX2Uq201TsK41-50" value="&lt;font style=&quot;font-size: 16px;&quot;&gt;1&lt;/font&gt;" style="text;html=1;align=center;verticalAlign=middle;resizable=0;points=[];autosize=1;strokeColor=none;fillColor=none;" parent="1" vertex="1">
          <mxGeometry x="384" y="125" width="30" height="30" as="geometry" />
        </mxCell>
        <mxCell id="Lw0NRX1pX2Uq201TsK41-52" value="1" style="text;html=1;align=center;verticalAlign=middle;resizable=0;points=[];autosize=1;strokeColor=none;fillColor=none;" parent="1" vertex="1">
          <mxGeometry x="220" y="160" width="30" height="30" as="geometry" />
        </mxCell>
        <mxCell id="Lw0NRX1pX2Uq201TsK41-53" value="&lt;font style=&quot;font-size: 16px;&quot;&gt;*&lt;/font&gt;" style="text;html=1;align=center;verticalAlign=middle;resizable=0;points=[];autosize=1;strokeColor=none;fillColor=none;" parent="1" vertex="1">
          <mxGeometry x="220" y="248" width="30" height="30" as="geometry" />
        </mxCell>
        <mxCell id="Lw0NRX1pX2Uq201TsK41-54" value="&lt;font style=&quot;font-size: 16px;&quot;&gt;*&lt;/font&gt;" style="text;html=1;align=center;verticalAlign=middle;resizable=0;points=[];autosize=1;strokeColor=none;fillColor=none;" parent="1" vertex="1">
          <mxGeometry x="275" y="278" width="30" height="30" as="geometry" />
        </mxCell>
        <mxCell id="Lw0NRX1pX2Uq201TsK41-55" value="&lt;font style=&quot;font-size: 16px;&quot;&gt;*&lt;/font&gt;" style="text;html=1;align=center;verticalAlign=middle;resizable=0;points=[];autosize=1;strokeColor=none;fillColor=none;" parent="1" vertex="1">
          <mxGeometry x="530" y="273" width="30" height="30" as="geometry" />
        </mxCell>
        <mxCell id="Lw0NRX1pX2Uq201TsK41-59" value="" style="ellipse;whiteSpace=wrap;html=1;aspect=fixed;" parent="1" vertex="1">
          <mxGeometry x="110" y="273" width="20" height="20" as="geometry" />
        </mxCell>
        <mxCell id="Lw0NRX1pX2Uq201TsK41-60" value="" style="ellipse;whiteSpace=wrap;html=1;aspect=fixed;" parent="1" vertex="1">
          <mxGeometry x="575" y="228" width="20" height="20" as="geometry" />
        </mxCell>
        <mxCell id="Lw0NRX1pX2Uq201TsK41-61" value="" style="ellipse;whiteSpace=wrap;html=1;aspect=fixed;" parent="1" vertex="1">
          <mxGeometry x="660" y="228" width="20" height="20" as="geometry" />
        </mxCell>
        <mxCell id="Lw0NRX1pX2Uq201TsK41-62" value="" style="ellipse;whiteSpace=wrap;html=1;aspect=fixed;" parent="1" vertex="1">
          <mxGeometry x="710" y="298" width="20" height="20" as="geometry" />
        </mxCell>
        <mxCell id="Lw0NRX1pX2Uq201TsK41-63" value="" style="ellipse;whiteSpace=wrap;html=1;aspect=fixed;" parent="1" vertex="1">
          <mxGeometry x="710" y="268" width="20" height="20" as="geometry" />
        </mxCell>
        <mxCell id="Lw0NRX1pX2Uq201TsK41-64" value="" style="ellipse;whiteSpace=wrap;html=1;aspect=fixed;" parent="1" vertex="1">
          <mxGeometry x="380" y="340" width="20" height="20" as="geometry" />
        </mxCell>
        <mxCell id="Lw0NRX1pX2Uq201TsK41-65" value="" style="endArrow=none;html=1;rounded=0;exitX=0.5;exitY=0;exitDx=0;exitDy=0;entryX=0.163;entryY=0.675;entryDx=0;entryDy=0;entryPerimeter=0;" parent="1" source="Lw0NRX1pX2Uq201TsK41-64" target="Lw0NRX1pX2Uq201TsK41-6" edge="1">
          <mxGeometry width="50" height="50" relative="1" as="geometry">
            <mxPoint x="390" y="230" as="sourcePoint" />
            <mxPoint x="440" y="180" as="targetPoint" />
          </mxGeometry>
        </mxCell>
        <mxCell id="Lw0NRX1pX2Uq201TsK41-66" value="time&lt;br&gt;" style="text;html=1;align=center;verticalAlign=middle;resizable=0;points=[];autosize=1;strokeColor=none;fillColor=none;" parent="1" vertex="1">
          <mxGeometry x="365" y="360" width="50" height="30" as="geometry" />
        </mxCell>
        <mxCell id="Lw0NRX1pX2Uq201TsK41-71" value="" style="endArrow=none;html=1;rounded=0;exitX=1;exitY=0.117;exitDx=0;exitDy=0;exitPerimeter=0;" parent="1" source="Lw0NRX1pX2Uq201TsK41-1" edge="1">
          <mxGeometry width="50" height="50" relative="1" as="geometry">
            <mxPoint x="660" y="328" as="sourcePoint" />
            <mxPoint x="710" y="278" as="targetPoint" />
          </mxGeometry>
        </mxCell>
        <mxCell id="Lw0NRX1pX2Uq201TsK41-72" value="" style="endArrow=none;html=1;rounded=0;exitX=0.925;exitY=0.033;exitDx=0;exitDy=0;exitPerimeter=0;" parent="1" source="Lw0NRX1pX2Uq201TsK41-1" edge="1">
          <mxGeometry width="50" height="50" relative="1" as="geometry">
            <mxPoint x="620" y="298" as="sourcePoint" />
            <mxPoint x="670" y="248" as="targetPoint" />
          </mxGeometry>
        </mxCell>
        <mxCell id="Lw0NRX1pX2Uq201TsK41-74" value="" style="endArrow=none;html=1;rounded=0;exitX=1;exitY=0.117;exitDx=0;exitDy=0;exitPerimeter=0;" parent="1" edge="1">
          <mxGeometry width="50" height="50" relative="1" as="geometry">
            <mxPoint x="680" y="308" as="sourcePoint" />
            <mxPoint x="710" y="309" as="targetPoint" />
          </mxGeometry>
        </mxCell>
        <mxCell id="Lw0NRX1pX2Uq201TsK41-76" value="" style="endArrow=none;html=1;rounded=0;exitX=0.925;exitY=0.033;exitDx=0;exitDy=0;exitPerimeter=0;" parent="1" edge="1">
          <mxGeometry width="50" height="50" relative="1" as="geometry">
            <mxPoint x="585.5" y="270" as="sourcePoint" />
            <mxPoint x="584.5" y="246" as="targetPoint" />
            <Array as="points">
              <mxPoint x="585" y="258" />
            </Array>
          </mxGeometry>
        </mxCell>
        <mxCell id="Lw0NRX1pX2Uq201TsK41-78" value="id" style="text;html=1;align=center;verticalAlign=middle;resizable=0;points=[];autosize=1;strokeColor=none;fillColor=none;" parent="1" vertex="1">
          <mxGeometry x="85" y="263" width="30" height="30" as="geometry" />
        </mxCell>
        <mxCell id="Lw0NRX1pX2Uq201TsK41-79" value="first" style="text;html=1;align=center;verticalAlign=middle;resizable=0;points=[];autosize=1;strokeColor=none;fillColor=none;" parent="1" vertex="1">
          <mxGeometry x="650" y="198" width="40" height="30" as="geometry" />
        </mxCell>
        <mxCell id="Lw0NRX1pX2Uq201TsK41-80" value="last" style="text;html=1;align=center;verticalAlign=middle;resizable=0;points=[];autosize=1;strokeColor=none;fillColor=none;" parent="1" vertex="1">
          <mxGeometry x="740" y="263" width="40" height="30" as="geometry" />
        </mxCell>
        <mxCell id="Lw0NRX1pX2Uq201TsK41-81" value="mobile" style="text;html=1;align=center;verticalAlign=middle;resizable=0;points=[];autosize=1;strokeColor=none;fillColor=none;" parent="1" vertex="1">
          <mxGeometry x="730" y="293" width="60" height="30" as="geometry" />
        </mxCell>
        <mxCell id="Lw0NRX1pX2Uq201TsK41-82" value="id" style="text;html=1;align=center;verticalAlign=middle;resizable=0;points=[];autosize=1;strokeColor=none;fillColor=none;" parent="1" vertex="1">
          <mxGeometry x="570" y="198" width="30" height="30" as="geometry" />
        </mxCell>
        <mxCell id="Lw0NRX1pX2Uq201TsK41-83" value="" style="endArrow=none;html=1;rounded=0;exitX=1;exitY=0.5;exitDx=0;exitDy=0;entryX=0;entryY=0.25;entryDx=0;entryDy=0;" parent="1" source="Lw0NRX1pX2Uq201TsK41-59" target="Lw0NRX1pX2Uq201TsK41-4" edge="1">
          <mxGeometry width="50" height="50" relative="1" as="geometry">
            <mxPoint x="390" y="230" as="sourcePoint" />
            <mxPoint x="440" y="180" as="targetPoint" />
          </mxGeometry>
        </mxCell>
        <mxCell id="Zc-ZAYhECrXt22PSPQzX-3" value="Field" style="swimlane;fontStyle=0;childLayout=stackLayout;horizontal=1;startSize=30;horizontalStack=0;resizeParent=1;resizeParentMax=0;resizeLast=0;collapsible=1;marginBottom=0;whiteSpace=wrap;html=1;fillColor=#dae8fc;gradientColor=#7ea6e0;strokeColor=#6c8ebf;" parent="1" vertex="1">
          <mxGeometry x="135" y="910" width="140" height="90" as="geometry" />
        </mxCell>
        <mxCell id="Zc-ZAYhECrXt22PSPQzX-4" value="- id: iint" style="text;strokeColor=#666666;fillColor=#f5f5f5;align=left;verticalAlign=middle;spacingLeft=4;spacingRight=4;overflow=hidden;points=[[0,0.5],[1,0.5]];portConstraint=eastwest;rotatable=0;whiteSpace=wrap;html=1;gradientColor=#b3b3b3;" parent="Zc-ZAYhECrXt22PSPQzX-3" vertex="1">
          <mxGeometry y="30" width="140" height="30" as="geometry" />
        </mxCell>
        <mxCell id="Ekgfs1hk77x5DyquX_aV-30" value="- id_fields: int" style="text;strokeColor=#666666;fillColor=#f5f5f5;align=left;verticalAlign=middle;spacingLeft=4;spacingRight=4;overflow=hidden;points=[[0,0.5],[1,0.5]];portConstraint=eastwest;rotatable=0;whiteSpace=wrap;html=1;gradientColor=#b3b3b3;" parent="Zc-ZAYhECrXt22PSPQzX-3" vertex="1">
          <mxGeometry y="60" width="140" height="30" as="geometry" />
        </mxCell>
        <mxCell id="Zc-ZAYhECrXt22PSPQzX-7" value="Fields" style="swimlane;fontStyle=0;childLayout=stackLayout;horizontal=1;startSize=30;horizontalStack=0;resizeParent=1;resizeParentMax=0;resizeLast=0;collapsible=1;marginBottom=0;whiteSpace=wrap;html=1;fillColor=#dae8fc;gradientColor=#7ea6e0;strokeColor=#6c8ebf;" parent="1" vertex="1">
          <mxGeometry x="270" y="630" width="140" height="90" as="geometry" />
        </mxCell>
        <mxCell id="Zc-ZAYhECrXt22PSPQzX-8" value="- open: String" style="text;strokeColor=#666666;fillColor=#f5f5f5;align=left;verticalAlign=middle;spacingLeft=4;spacingRight=4;overflow=hidden;points=[[0,0.5],[1,0.5]];portConstraint=eastwest;rotatable=0;whiteSpace=wrap;html=1;gradientColor=#b3b3b3;" parent="Zc-ZAYhECrXt22PSPQzX-7" vertex="1">
          <mxGeometry y="30" width="140" height="30" as="geometry" />
        </mxCell>
        <mxCell id="Zc-ZAYhECrXt22PSPQzX-9" value="- close: String" style="text;strokeColor=#666666;fillColor=#f5f5f5;align=left;verticalAlign=middle;spacingLeft=4;spacingRight=4;overflow=hidden;points=[[0,0.5],[1,0.5]];portConstraint=eastwest;rotatable=0;whiteSpace=wrap;html=1;gradientColor=#b3b3b3;" parent="Zc-ZAYhECrXt22PSPQzX-7" vertex="1">
          <mxGeometry y="60" width="140" height="30" as="geometry" />
        </mxCell>
        <mxCell id="Zc-ZAYhECrXt22PSPQzX-11" value="Features" style="swimlane;fontStyle=0;childLayout=stackLayout;horizontal=1;startSize=30;horizontalStack=0;resizeParent=1;resizeParentMax=0;resizeLast=0;collapsible=1;marginBottom=0;whiteSpace=wrap;html=1;fillColor=#dae8fc;gradientColor=#7ea6e0;strokeColor=#6c8ebf;" parent="1" vertex="1">
          <mxGeometry x="40" y="610" width="140" height="150" as="geometry" />
        </mxCell>
        <mxCell id="Zc-ZAYhECrXt22PSPQzX-12" value="- indoor: boolean" style="text;strokeColor=#666666;fillColor=#f5f5f5;align=left;verticalAlign=middle;spacingLeft=4;spacingRight=4;overflow=hidden;points=[[0,0.5],[1,0.5]];portConstraint=eastwest;rotatable=0;whiteSpace=wrap;html=1;gradientColor=#b3b3b3;" parent="Zc-ZAYhECrXt22PSPQzX-11" vertex="1">
          <mxGeometry y="30" width="140" height="30" as="geometry" />
        </mxCell>
        <mxCell id="Zc-ZAYhECrXt22PSPQzX-13" value="- heating: boolean" style="text;strokeColor=#666666;fillColor=#f5f5f5;align=left;verticalAlign=middle;spacingLeft=4;spacingRight=4;overflow=hidden;points=[[0,0.5],[1,0.5]];portConstraint=eastwest;rotatable=0;whiteSpace=wrap;html=1;gradientColor=#b3b3b3;" parent="Zc-ZAYhECrXt22PSPQzX-11" vertex="1">
          <mxGeometry y="60" width="140" height="30" as="geometry" />
        </mxCell>
        <mxCell id="Zc-ZAYhECrXt22PSPQzX-14" value="- ac: boolean" style="text;strokeColor=#666666;fillColor=#f5f5f5;align=left;verticalAlign=middle;spacingLeft=4;spacingRight=4;overflow=hidden;points=[[0,0.5],[1,0.5]];portConstraint=eastwest;rotatable=0;whiteSpace=wrap;html=1;gradientColor=#b3b3b3;" parent="Zc-ZAYhECrXt22PSPQzX-11" vertex="1">
          <mxGeometry y="90" width="140" height="30" as="geometry" />
        </mxCell>
        <mxCell id="Ekgfs1hk77x5DyquX_aV-29" value="- id_field: int" style="text;strokeColor=#666666;fillColor=#f5f5f5;align=left;verticalAlign=middle;spacingLeft=4;spacingRight=4;overflow=hidden;points=[[0,0.5],[1,0.5]];portConstraint=eastwest;rotatable=0;whiteSpace=wrap;html=1;gradientColor=#b3b3b3;" parent="Zc-ZAYhECrXt22PSPQzX-11" vertex="1">
          <mxGeometry y="120" width="140" height="30" as="geometry" />
        </mxCell>
        <mxCell id="Zc-ZAYhECrXt22PSPQzX-19" value="Associate" style="swimlane;fontStyle=0;childLayout=stackLayout;horizontal=1;startSize=30;horizontalStack=0;resizeParent=1;resizeParentMax=0;resizeLast=0;collapsible=1;marginBottom=0;whiteSpace=wrap;html=1;fillColor=#dae8fc;gradientColor=#7ea6e0;strokeColor=#6c8ebf;" parent="1" vertex="1">
          <mxGeometry x="600" y="870" width="140" height="150" as="geometry" />
        </mxCell>
        <mxCell id="Zc-ZAYhECrXt22PSPQzX-20" value="- id: int" style="text;strokeColor=#666666;fillColor=#f5f5f5;align=left;verticalAlign=middle;spacingLeft=4;spacingRight=4;overflow=hidden;points=[[0,0.5],[1,0.5]];portConstraint=eastwest;rotatable=0;whiteSpace=wrap;html=1;gradientColor=#b3b3b3;" parent="Zc-ZAYhECrXt22PSPQzX-19" vertex="1">
          <mxGeometry y="30" width="140" height="30" as="geometry" />
        </mxCell>
        <mxCell id="Zc-ZAYhECrXt22PSPQzX-21" value="- first: Stirng" style="text;strokeColor=#666666;fillColor=#f5f5f5;align=left;verticalAlign=middle;spacingLeft=4;spacingRight=4;overflow=hidden;points=[[0,0.5],[1,0.5]];portConstraint=eastwest;rotatable=0;whiteSpace=wrap;html=1;gradientColor=#b3b3b3;" parent="Zc-ZAYhECrXt22PSPQzX-19" vertex="1">
          <mxGeometry y="60" width="140" height="30" as="geometry" />
        </mxCell>
        <mxCell id="Zc-ZAYhECrXt22PSPQzX-22" value="- last: String" style="text;strokeColor=#666666;fillColor=#f5f5f5;align=left;verticalAlign=middle;spacingLeft=4;spacingRight=4;overflow=hidden;points=[[0,0.5],[1,0.5]];portConstraint=eastwest;rotatable=0;whiteSpace=wrap;html=1;gradientColor=#b3b3b3;" parent="Zc-ZAYhECrXt22PSPQzX-19" vertex="1">
          <mxGeometry y="90" width="140" height="30" as="geometry" />
        </mxCell>
        <mxCell id="Ekgfs1hk77x5DyquX_aV-40" value="- moblìe: String" style="text;strokeColor=#666666;fillColor=#f5f5f5;align=left;verticalAlign=middle;spacingLeft=4;spacingRight=4;overflow=hidden;points=[[0,0.5],[1,0.5]];portConstraint=eastwest;rotatable=0;whiteSpace=wrap;html=1;gradientColor=#b3b3b3;" parent="Zc-ZAYhECrXt22PSPQzX-19" vertex="1">
          <mxGeometry y="120" width="140" height="30" as="geometry" />
        </mxCell>
        <mxCell id="Zc-ZAYhECrXt22PSPQzX-23" value="" style="endArrow=none;html=1;rounded=0;exitX=0.25;exitY=0;exitDx=0;exitDy=0;" parent="1" source="Zc-ZAYhECrXt22PSPQzX-3" edge="1">
          <mxGeometry width="50" height="50" relative="1" as="geometry">
            <mxPoint x="210" y="910" as="sourcePoint" />
            <mxPoint x="110" y="760" as="targetPoint" />
          </mxGeometry>
        </mxCell>
        <mxCell id="Zc-ZAYhECrXt22PSPQzX-24" value="0..*" style="text;html=1;align=center;verticalAlign=middle;resizable=0;points=[];autosize=1;strokeColor=none;fillColor=none;" parent="1" vertex="1">
          <mxGeometry x="235" y="720" width="40" height="30" as="geometry" />
        </mxCell>
        <mxCell id="Zc-ZAYhECrXt22PSPQzX-25" value="0.*" style="text;html=1;align=center;verticalAlign=middle;resizable=0;points=[];autosize=1;strokeColor=none;fillColor=none;" parent="1" vertex="1">
          <mxGeometry x="410" y="700" width="40" height="30" as="geometry" />
        </mxCell>
        <mxCell id="Zc-ZAYhECrXt22PSPQzX-26" value="" style="endArrow=none;html=1;rounded=0;exitX=0.564;exitY=0;exitDx=0;exitDy=0;exitPerimeter=0;entryX=0.043;entryY=1.033;entryDx=0;entryDy=0;entryPerimeter=0;" parent="1" source="Zc-ZAYhECrXt22PSPQzX-3" target="Zc-ZAYhECrXt22PSPQzX-9" edge="1">
          <mxGeometry width="50" height="50" relative="1" as="geometry">
            <mxPoint x="390" y="740" as="sourcePoint" />
            <mxPoint x="194" y="740" as="targetPoint" />
          </mxGeometry>
        </mxCell>
        <mxCell id="Zc-ZAYhECrXt22PSPQzX-27" value="1" style="text;html=1;align=center;verticalAlign=middle;resizable=0;points=[];autosize=1;strokeColor=none;fillColor=none;" parent="1" vertex="1">
          <mxGeometry x="130" y="770" width="30" height="30" as="geometry" />
        </mxCell>
        <mxCell id="Zc-ZAYhECrXt22PSPQzX-28" value="0..*" style="text;html=1;align=center;verticalAlign=middle;resizable=0;points=[];autosize=1;strokeColor=none;fillColor=none;" parent="1" vertex="1">
          <mxGeometry x="165" y="880" width="40" height="30" as="geometry" />
        </mxCell>
        <mxCell id="Zc-ZAYhECrXt22PSPQzX-29" value="" style="endArrow=none;html=1;rounded=0;entryX=0;entryY=0;entryDx=0;entryDy=0;exitX=1;exitY=1;exitDx=0;exitDy=0;" parent="1" source="Zc-ZAYhECrXt22PSPQzX-7" target="Zc-ZAYhECrXt22PSPQzX-19" edge="1">
          <mxGeometry width="50" height="50" relative="1" as="geometry">
            <mxPoint x="270" y="590" as="sourcePoint" />
            <mxPoint x="440" y="690" as="targetPoint" />
          </mxGeometry>
        </mxCell>
        <mxCell id="Zc-ZAYhECrXt22PSPQzX-30" value="1" style="text;html=1;align=center;verticalAlign=middle;resizable=0;points=[];autosize=1;strokeColor=none;fillColor=none;" parent="1" vertex="1">
          <mxGeometry x="205" y="848" width="30" height="30" as="geometry" />
        </mxCell>
        <mxCell id="Zc-ZAYhECrXt22PSPQzX-34" value="Booking" style="swimlane;fontStyle=0;childLayout=stackLayout;horizontal=1;startSize=30;horizontalStack=0;resizeParent=1;resizeParentMax=0;resizeLast=0;collapsible=1;marginBottom=0;whiteSpace=wrap;html=1;fillColor=#dae8fc;gradientColor=#7ea6e0;strokeColor=#6c8ebf;" parent="1" vertex="1">
          <mxGeometry x="320" y="1030" width="140" height="150" as="geometry" />
        </mxCell>
        <mxCell id="Zc-ZAYhECrXt22PSPQzX-35" value="- id: int" style="text;strokeColor=#666666;fillColor=#f5f5f5;align=left;verticalAlign=middle;spacingLeft=4;spacingRight=4;overflow=hidden;points=[[0,0.5],[1,0.5]];portConstraint=eastwest;rotatable=0;whiteSpace=wrap;html=1;gradientColor=#b3b3b3;" parent="Zc-ZAYhECrXt22PSPQzX-34" vertex="1">
          <mxGeometry y="30" width="140" height="30" as="geometry" />
        </mxCell>
        <mxCell id="Ekgfs1hk77x5DyquX_aV-32" value="- time:&amp;nbsp; String" style="text;strokeColor=#666666;fillColor=#f5f5f5;align=left;verticalAlign=middle;spacingLeft=4;spacingRight=4;overflow=hidden;points=[[0,0.5],[1,0.5]];portConstraint=eastwest;rotatable=0;whiteSpace=wrap;html=1;gradientColor=#b3b3b3;" parent="Zc-ZAYhECrXt22PSPQzX-34" vertex="1">
          <mxGeometry y="60" width="140" height="30" as="geometry" />
        </mxCell>
        <mxCell id="Ekgfs1hk77x5DyquX_aV-33" value="- id_field: int" style="text;strokeColor=#666666;fillColor=#f5f5f5;align=left;verticalAlign=middle;spacingLeft=4;spacingRight=4;overflow=hidden;points=[[0,0.5],[1,0.5]];portConstraint=eastwest;rotatable=0;whiteSpace=wrap;html=1;gradientColor=#b3b3b3;" parent="Zc-ZAYhECrXt22PSPQzX-34" vertex="1">
          <mxGeometry y="90" width="140" height="30" as="geometry" />
        </mxCell>
        <mxCell id="Ekgfs1hk77x5DyquX_aV-34" value="- id_associate: int" style="text;strokeColor=#666666;fillColor=#f5f5f5;align=left;verticalAlign=middle;spacingLeft=4;spacingRight=4;overflow=hidden;points=[[0,0.5],[1,0.5]];portConstraint=eastwest;rotatable=0;whiteSpace=wrap;html=1;gradientColor=#b3b3b3;" parent="Zc-ZAYhECrXt22PSPQzX-34" vertex="1">
          <mxGeometry y="120" width="140" height="30" as="geometry" />
        </mxCell>
        <mxCell id="Zc-ZAYhECrXt22PSPQzX-38" value="" style="endArrow=none;html=1;rounded=0;entryX=0.222;entryY=0.963;entryDx=0;entryDy=0;entryPerimeter=0;" parent="1" target="RqQ3GGJJdriutGatGUng-25" edge="1">
          <mxGeometry width="50" height="50" relative="1" as="geometry">
            <mxPoint x="460" y="1120" as="sourcePoint" />
            <mxPoint x="640" y="1100" as="targetPoint" />
            <Array as="points">
              <mxPoint x="639" y="1120" />
            </Array>
          </mxGeometry>
        </mxCell>
        <mxCell id="Zc-ZAYhECrXt22PSPQzX-40" value="" style="endArrow=none;html=1;rounded=0;exitX=-0.029;exitY=0.767;exitDx=0;exitDy=0;exitPerimeter=0;" parent="1" source="Ekgfs1hk77x5DyquX_aV-32" edge="1">
          <mxGeometry width="50" height="50" relative="1" as="geometry">
            <mxPoint x="310" y="970" as="sourcePoint" />
            <mxPoint x="190" y="1000" as="targetPoint" />
            <Array as="points">
              <mxPoint x="190" y="1113" />
            </Array>
          </mxGeometry>
        </mxCell>
        <mxCell id="Zc-ZAYhECrXt22PSPQzX-41" value="1" style="text;html=1;align=center;verticalAlign=middle;resizable=0;points=[];autosize=1;strokeColor=none;fillColor=none;" parent="1" vertex="1">
          <mxGeometry x="190" y="1000" width="30" height="30" as="geometry" />
        </mxCell>
        <mxCell id="Zc-ZAYhECrXt22PSPQzX-43" value="0..*" style="text;html=1;align=center;verticalAlign=middle;resizable=0;points=[];autosize=1;strokeColor=none;fillColor=none;" parent="1" vertex="1">
          <mxGeometry x="280" y="1080" width="40" height="30" as="geometry" />
        </mxCell>
        <mxCell id="Zc-ZAYhECrXt22PSPQzX-44" value="0..*" style="text;html=1;align=center;verticalAlign=middle;resizable=0;points=[];autosize=1;strokeColor=none;fillColor=none;" parent="1" vertex="1">
          <mxGeometry x="465" y="1090" width="40" height="30" as="geometry" />
        </mxCell>
        <mxCell id="Zc-ZAYhECrXt22PSPQzX-45" value="&lt;font style=&quot;font-size: 20px;&quot;&gt;FootballFields&lt;/font&gt;" style="text;html=1;align=center;verticalAlign=middle;resizable=0;points=[];autosize=1;strokeColor=none;fillColor=none;" parent="1" vertex="1">
          <mxGeometry x="660" y="3" width="150" height="40" as="geometry" />
        </mxCell>
        <mxCell id="Zc-ZAYhECrXt22PSPQzX-46" value="1" style="text;html=1;align=center;verticalAlign=middle;resizable=0;points=[];autosize=1;strokeColor=none;fillColor=none;" parent="1" vertex="1">
          <mxGeometry x="600" y="1080" width="30" height="30" as="geometry" />
        </mxCell>
        <mxCell id="Zc-ZAYhECrXt22PSPQzX-55" value="" style="ellipse;whiteSpace=wrap;html=1;aspect=fixed;" parent="1" vertex="1">
          <mxGeometry x="445" y="350" width="20" height="20" as="geometry" />
        </mxCell>
        <mxCell id="Zc-ZAYhECrXt22PSPQzX-56" value="" style="endArrow=none;html=1;rounded=0;exitX=0.5;exitY=0;exitDx=0;exitDy=0;entryX=0.85;entryY=0.663;entryDx=0;entryDy=0;entryPerimeter=0;" parent="1" source="Zc-ZAYhECrXt22PSPQzX-55" target="Lw0NRX1pX2Uq201TsK41-6" edge="1">
          <mxGeometry width="50" height="50" relative="1" as="geometry">
            <mxPoint x="400" y="340" as="sourcePoint" />
            <mxPoint x="450" y="320" as="targetPoint" />
          </mxGeometry>
        </mxCell>
        <mxCell id="Zc-ZAYhECrXt22PSPQzX-57" value="id" style="text;html=1;align=center;verticalAlign=middle;resizable=0;points=[];autosize=1;strokeColor=none;fillColor=none;" parent="1" vertex="1">
          <mxGeometry x="460" y="360" width="30" height="30" as="geometry" />
        </mxCell>
        <mxCell id="Zc-ZAYhECrXt22PSPQzX-58" value="" style="endArrow=none;html=1;rounded=0;exitX=1;exitY=1;exitDx=0;exitDy=0;entryX=0;entryY=0;entryDx=0;entryDy=0;" parent="1" source="Lw0NRX1pX2Uq201TsK41-5" target="Lw0NRX1pX2Uq201TsK41-1" edge="1">
          <mxGeometry width="50" height="50" relative="1" as="geometry">
            <mxPoint x="400" y="240" as="sourcePoint" />
            <mxPoint x="450" y="190" as="targetPoint" />
          </mxGeometry>
        </mxCell>
        <mxCell id="Zc-ZAYhECrXt22PSPQzX-59" value="0.*" style="text;html=1;align=center;verticalAlign=middle;resizable=0;points=[];autosize=1;strokeColor=none;fillColor=none;" parent="1" vertex="1">
          <mxGeometry x="535" y="238" width="40" height="30" as="geometry" />
        </mxCell>
        <mxCell id="Zc-ZAYhECrXt22PSPQzX-60" value="1" style="text;html=1;align=center;verticalAlign=middle;resizable=0;points=[];autosize=1;strokeColor=none;fillColor=none;" parent="1" vertex="1">
          <mxGeometry x="290" y="140" width="30" height="30" as="geometry" />
        </mxCell>
        <mxCell id="XrWRQXsPd7csBp4up9cS-1" value="" style="endArrow=none;html=1;rounded=0;" parent="1" edge="1">
          <mxGeometry width="50" height="50" relative="1" as="geometry">
            <mxPoint x="140" y="310" as="sourcePoint" />
            <mxPoint x="240" y="240" as="targetPoint" />
            <Array as="points">
              <mxPoint x="140" y="240" />
            </Array>
          </mxGeometry>
        </mxCell>
        <mxCell id="XrWRQXsPd7csBp4up9cS-3" value="" style="ellipse;whiteSpace=wrap;html=1;aspect=fixed;fillColor=#000000;" parent="1" vertex="1">
          <mxGeometry x="605" y="243" width="20" height="20" as="geometry" />
        </mxCell>
        <mxCell id="XrWRQXsPd7csBp4up9cS-4" value="" style="ellipse;whiteSpace=wrap;html=1;aspect=fixed;fillColor=#000000;" parent="1" vertex="1">
          <mxGeometry x="480" y="70" width="20" height="20" as="geometry" />
        </mxCell>
        <mxCell id="XrWRQXsPd7csBp4up9cS-5" value="" style="ellipse;whiteSpace=wrap;html=1;aspect=fixed;strokeColor=#000000;fillColor=#000000;" parent="1" vertex="1">
          <mxGeometry x="130" y="310" width="20" height="20" as="geometry" />
        </mxCell>
        <mxCell id="XrWRQXsPd7csBp4up9cS-6" value="" style="endArrow=none;html=1;rounded=0;entryX=0;entryY=0.5;entryDx=0;entryDy=0;" parent="1" target="XrWRQXsPd7csBp4up9cS-4" edge="1">
          <mxGeometry width="50" height="50" relative="1" as="geometry">
            <mxPoint x="420" y="150" as="sourcePoint" />
            <mxPoint x="440" y="240" as="targetPoint" />
            <Array as="points">
              <mxPoint x="420" y="80" />
            </Array>
          </mxGeometry>
        </mxCell>
        <mxCell id="XrWRQXsPd7csBp4up9cS-10" value="" style="endArrow=none;html=1;rounded=0;entryX=0;entryY=0.5;entryDx=0;entryDy=0;" parent="1" target="XrWRQXsPd7csBp4up9cS-3" edge="1">
          <mxGeometry width="50" height="50" relative="1" as="geometry">
            <mxPoint x="520" y="270" as="sourcePoint" />
            <mxPoint x="440" y="240" as="targetPoint" />
          </mxGeometry>
        </mxCell>
        <mxCell id="Ekgfs1hk77x5DyquX_aV-1" value="&lt;font style=&quot;font-size: 14px;&quot;&gt;Login&lt;/font&gt;" style="rounded=0;whiteSpace=wrap;html=1;fillColor=#f5f5f5;gradientColor=#b3b3b3;strokeColor=#666666;" parent="1" vertex="1">
          <mxGeometry x="555" y="440" width="120" height="60" as="geometry" />
        </mxCell>
        <mxCell id="Ekgfs1hk77x5DyquX_aV-2" value="" style="ellipse;whiteSpace=wrap;html=1;aspect=fixed;" parent="1" vertex="1">
          <mxGeometry x="710" y="480" width="20" height="20" as="geometry" />
        </mxCell>
        <mxCell id="Ekgfs1hk77x5DyquX_aV-3" value="" style="ellipse;whiteSpace=wrap;html=1;aspect=fixed;" parent="1" vertex="1">
          <mxGeometry x="510" y="440" width="20" height="20" as="geometry" />
        </mxCell>
        <mxCell id="Ekgfs1hk77x5DyquX_aV-4" value="" style="ellipse;whiteSpace=wrap;html=1;aspect=fixed;" parent="1" vertex="1">
          <mxGeometry x="710" y="440" width="20" height="20" as="geometry" />
        </mxCell>
        <mxCell id="Ekgfs1hk77x5DyquX_aV-5" value="" style="ellipse;whiteSpace=wrap;html=1;aspect=fixed;" parent="1" vertex="1">
          <mxGeometry x="570" y="520" width="20" height="20" as="geometry" />
        </mxCell>
        <mxCell id="Ekgfs1hk77x5DyquX_aV-6" value="id" style="text;html=1;align=center;verticalAlign=middle;resizable=0;points=[];autosize=1;strokeColor=none;fillColor=none;" parent="1" vertex="1">
          <mxGeometry x="475" y="435" width="30" height="30" as="geometry" />
        </mxCell>
        <mxCell id="Ekgfs1hk77x5DyquX_aV-7" value="ruolo" style="text;html=1;align=center;verticalAlign=middle;resizable=0;points=[];autosize=1;strokeColor=none;fillColor=none;" parent="1" vertex="1">
          <mxGeometry x="555" y="548" width="50" height="30" as="geometry" />
        </mxCell>
        <mxCell id="Ekgfs1hk77x5DyquX_aV-8" value="password" style="text;html=1;align=center;verticalAlign=middle;resizable=0;points=[];autosize=1;strokeColor=none;fillColor=none;" parent="1" vertex="1">
          <mxGeometry x="730" y="475" width="70" height="30" as="geometry" />
        </mxCell>
        <mxCell id="Ekgfs1hk77x5DyquX_aV-10" value="user_name" style="text;html=1;align=center;verticalAlign=middle;resizable=0;points=[];autosize=1;strokeColor=none;fillColor=none;" parent="1" vertex="1">
          <mxGeometry x="725" y="430" width="80" height="30" as="geometry" />
        </mxCell>
        <mxCell id="Ekgfs1hk77x5DyquX_aV-11" value="" style="endArrow=none;html=1;rounded=0;entryX=0;entryY=0.25;entryDx=0;entryDy=0;exitX=1;exitY=0.5;exitDx=0;exitDy=0;" parent="1" source="Ekgfs1hk77x5DyquX_aV-3" target="Ekgfs1hk77x5DyquX_aV-1" edge="1">
          <mxGeometry width="50" height="50" relative="1" as="geometry">
            <mxPoint x="390" y="400" as="sourcePoint" />
            <mxPoint x="440" y="350" as="targetPoint" />
          </mxGeometry>
        </mxCell>
        <mxCell id="Ekgfs1hk77x5DyquX_aV-12" value="" style="endArrow=none;html=1;rounded=0;entryX=1;entryY=0.75;entryDx=0;entryDy=0;" parent="1" target="Ekgfs1hk77x5DyquX_aV-1" edge="1">
          <mxGeometry width="50" height="50" relative="1" as="geometry">
            <mxPoint x="710" y="485" as="sourcePoint" />
            <mxPoint x="440" y="530" as="targetPoint" />
          </mxGeometry>
        </mxCell>
        <mxCell id="Ekgfs1hk77x5DyquX_aV-13" value="" style="endArrow=none;html=1;rounded=0;entryX=0;entryY=0.5;entryDx=0;entryDy=0;exitX=1;exitY=0.25;exitDx=0;exitDy=0;" parent="1" source="Ekgfs1hk77x5DyquX_aV-1" target="Ekgfs1hk77x5DyquX_aV-4" edge="1">
          <mxGeometry width="50" height="50" relative="1" as="geometry">
            <mxPoint x="680" y="450" as="sourcePoint" />
            <mxPoint x="440" y="350" as="targetPoint" />
          </mxGeometry>
        </mxCell>
        <mxCell id="Ekgfs1hk77x5DyquX_aV-14" value="" style="endArrow=none;html=1;rounded=0;exitX=0.5;exitY=0;exitDx=0;exitDy=0;entryX=0.2;entryY=0.967;entryDx=0;entryDy=0;entryPerimeter=0;" parent="1" source="Ekgfs1hk77x5DyquX_aV-5" target="Ekgfs1hk77x5DyquX_aV-1" edge="1">
          <mxGeometry width="50" height="50" relative="1" as="geometry">
            <mxPoint x="582.5" y="508" as="sourcePoint" />
            <mxPoint x="617.5" y="503" as="targetPoint" />
          </mxGeometry>
        </mxCell>
        <mxCell id="Ekgfs1hk77x5DyquX_aV-15" value="" style="endArrow=none;html=1;rounded=0;exitX=0.5;exitY=0;exitDx=0;exitDy=0;entryX=-0.1;entryY=0.5;entryDx=0;entryDy=0;entryPerimeter=0;" parent="1" source="Ekgfs1hk77x5DyquX_aV-16" edge="1" target="Zc-ZAYhECrXt22PSPQzX-59">
          <mxGeometry width="50" height="50" relative="1" as="geometry">
            <mxPoint x="700" y="460" as="sourcePoint" />
            <mxPoint x="500" y="220" as="targetPoint" />
            <Array as="points">
              <mxPoint x="530" y="370" />
            </Array>
          </mxGeometry>
        </mxCell>
        <mxCell id="Ekgfs1hk77x5DyquX_aV-16" value="" style="ellipse;whiteSpace=wrap;html=1;aspect=fixed;fillColor=#000000;" parent="1" vertex="1">
          <mxGeometry x="530" y="470" width="20" height="20" as="geometry" />
        </mxCell>
        <mxCell id="Ekgfs1hk77x5DyquX_aV-18" value="" style="endArrow=none;html=1;rounded=0;exitX=0.5;exitY=0;exitDx=0;exitDy=0;entryX=0.45;entryY=1.05;entryDx=0;entryDy=0;entryPerimeter=0;" parent="1" source="Ekgfs1hk77x5DyquX_aV-1" target="Lw0NRX1pX2Uq201TsK41-1" edge="1">
          <mxGeometry width="50" height="50" relative="1" as="geometry">
            <mxPoint x="390" y="400" as="sourcePoint" />
            <mxPoint x="440" y="350" as="targetPoint" />
          </mxGeometry>
        </mxCell>
        <mxCell id="Ekgfs1hk77x5DyquX_aV-19" value="1" style="text;html=1;align=center;verticalAlign=middle;resizable=0;points=[];autosize=1;strokeColor=none;fillColor=none;" parent="1" vertex="1">
          <mxGeometry x="615" y="330" width="30" height="30" as="geometry" />
        </mxCell>
        <mxCell id="Ekgfs1hk77x5DyquX_aV-20" value="0..*" style="text;html=1;align=center;verticalAlign=middle;resizable=0;points=[];autosize=1;strokeColor=none;fillColor=none;" parent="1" vertex="1">
          <mxGeometry x="620" y="408" width="40" height="30" as="geometry" />
        </mxCell>
        <mxCell id="Ekgfs1hk77x5DyquX_aV-21" value="Login" style="swimlane;fontStyle=0;childLayout=stackLayout;horizontal=1;startSize=30;horizontalStack=0;resizeParent=1;resizeParentMax=0;resizeLast=0;collapsible=1;marginBottom=0;whiteSpace=wrap;html=1;fillColor=#dae8fc;gradientColor=#7ea6e0;strokeColor=#6c8ebf;" parent="1" vertex="1">
          <mxGeometry x="590" y="630" width="140" height="120" as="geometry" />
        </mxCell>
        <mxCell id="Ekgfs1hk77x5DyquX_aV-22" value="- user_name" style="text;strokeColor=#666666;fillColor=#f5f5f5;align=left;verticalAlign=middle;spacingLeft=4;spacingRight=4;overflow=hidden;points=[[0,0.5],[1,0.5]];portConstraint=eastwest;rotatable=0;whiteSpace=wrap;html=1;gradientColor=#b3b3b3;" parent="Ekgfs1hk77x5DyquX_aV-21" vertex="1">
          <mxGeometry y="30" width="140" height="30" as="geometry" />
        </mxCell>
        <mxCell id="Ekgfs1hk77x5DyquX_aV-23" value="- password: String" style="text;strokeColor=#666666;fillColor=#f5f5f5;align=left;verticalAlign=middle;spacingLeft=4;spacingRight=4;overflow=hidden;points=[[0,0.5],[1,0.5]];portConstraint=eastwest;rotatable=0;whiteSpace=wrap;html=1;gradientColor=#b3b3b3;" parent="Ekgfs1hk77x5DyquX_aV-21" vertex="1">
          <mxGeometry y="60" width="140" height="30" as="geometry" />
        </mxCell>
        <mxCell id="Ekgfs1hk77x5DyquX_aV-24" value="- ruole: enum" style="text;strokeColor=#666666;fillColor=#f5f5f5;align=left;verticalAlign=middle;spacingLeft=4;spacingRight=4;overflow=hidden;points=[[0,0.5],[1,0.5]];portConstraint=eastwest;rotatable=0;whiteSpace=wrap;html=1;gradientColor=#b3b3b3;" parent="Ekgfs1hk77x5DyquX_aV-21" vertex="1">
          <mxGeometry y="90" width="140" height="30" as="geometry" />
        </mxCell>
        <mxCell id="Ekgfs1hk77x5DyquX_aV-26" value="" style="endArrow=none;html=1;rounded=0;exitX=0.564;exitY=-0.013;exitDx=0;exitDy=0;exitPerimeter=0;entryX=0.657;entryY=1.167;entryDx=0;entryDy=0;entryPerimeter=0;" parent="1" source="Zc-ZAYhECrXt22PSPQzX-19" target="Ekgfs1hk77x5DyquX_aV-24" edge="1">
          <mxGeometry width="50" height="50" relative="1" as="geometry">
            <mxPoint x="390" y="700" as="sourcePoint" />
            <mxPoint x="684" y="780" as="targetPoint" />
          </mxGeometry>
        </mxCell>
        <mxCell id="Ekgfs1hk77x5DyquX_aV-27" value="1" style="text;html=1;align=center;verticalAlign=middle;resizable=0;points=[];autosize=1;strokeColor=none;fillColor=none;" parent="1" vertex="1">
          <mxGeometry x="650" y="780" width="30" height="30" as="geometry" />
        </mxCell>
        <mxCell id="Ekgfs1hk77x5DyquX_aV-28" value="0..*" style="text;html=1;align=center;verticalAlign=middle;resizable=0;points=[];autosize=1;strokeColor=none;fillColor=none;" parent="1" vertex="1">
          <mxGeometry x="640" y="848" width="40" height="30" as="geometry" />
        </mxCell>
        <mxCell id="Zc-ZAYhECrXt22PSPQzX-32" value="- id_login: int" style="text;strokeColor=#666666;fillColor=#f5f5f5;align=left;verticalAlign=middle;spacingLeft=4;spacingRight=4;overflow=hidden;points=[[0,0.5],[1,0.5]];portConstraint=eastwest;rotatable=0;whiteSpace=wrap;html=1;gradientColor=#b3b3b3;" parent="1" vertex="1">
          <mxGeometry x="600" y="1020" width="140" height="30" as="geometry" />
        </mxCell>
        <mxCell id="Ekgfs1hk77x5DyquX_aV-42" value="1" style="text;html=1;align=center;verticalAlign=middle;resizable=0;points=[];autosize=1;strokeColor=none;fillColor=none;" parent="1" vertex="1">
          <mxGeometry x="585" y="838" width="30" height="30" as="geometry" />
        </mxCell>
        <mxCell id="jMYRhRSVrREB6778x-WR-3" value="" style="shape=flexArrow;endArrow=classic;html=1;rounded=0;" parent="1" edge="1">
          <mxGeometry width="50" height="50" relative="1" as="geometry">
            <mxPoint x="470" y="1190" as="sourcePoint" />
            <mxPoint x="550" y="1220" as="targetPoint" />
          </mxGeometry>
        </mxCell>
        <mxCell id="jMYRhRSVrREB6778x-WR-7" value="Booking" style="swimlane;fontStyle=0;childLayout=stackLayout;horizontal=1;startSize=30;horizontalStack=0;resizeParent=1;resizeParentMax=0;resizeLast=0;collapsible=1;marginBottom=0;whiteSpace=wrap;html=1;" parent="1" vertex="1">
          <mxGeometry x="560" y="1200" width="180" height="90" as="geometry" />
        </mxCell>
        <mxCell id="jMYRhRSVrREB6778x-WR-10" value="private Field field;" style="text;strokeColor=none;fillColor=none;align=left;verticalAlign=middle;spacingLeft=4;spacingRight=4;overflow=hidden;points=[[0,0.5],[1,0.5]];portConstraint=eastwest;rotatable=0;whiteSpace=wrap;html=1;" parent="jMYRhRSVrREB6778x-WR-7" vertex="1">
          <mxGeometry y="30" width="180" height="30" as="geometry" />
        </mxCell>
        <mxCell id="jMYRhRSVrREB6778x-WR-11" value="private List&amp;lt;Associate&amp;gt; associate;" style="text;strokeColor=none;fillColor=none;align=left;verticalAlign=middle;spacingLeft=4;spacingRight=4;overflow=hidden;points=[[0,0.5],[1,0.5]];portConstraint=eastwest;rotatable=0;whiteSpace=wrap;html=1;" parent="jMYRhRSVrREB6778x-WR-7" vertex="1">
          <mxGeometry y="60" width="180" height="30" as="geometry" />
        </mxCell>
        <mxCell id="jMYRhRSVrREB6778x-WR-12" value="Login" style="swimlane;fontStyle=0;childLayout=stackLayout;horizontal=1;startSize=30;horizontalStack=0;resizeParent=1;resizeParentMax=0;resizeLast=0;collapsible=1;marginBottom=0;whiteSpace=wrap;html=1;" parent="1" vertex="1">
          <mxGeometry x="870" y="1120" width="140" height="60" as="geometry" />
        </mxCell>
        <mxCell id="jMYRhRSVrREB6778x-WR-15" value="private Login login" style="text;strokeColor=none;fillColor=none;align=left;verticalAlign=middle;spacingLeft=4;spacingRight=4;overflow=hidden;points=[[0,0.5],[1,0.5]];portConstraint=eastwest;rotatable=0;whiteSpace=wrap;html=1;" parent="jMYRhRSVrREB6778x-WR-12" vertex="1">
          <mxGeometry y="30" width="140" height="30" as="geometry" />
        </mxCell>
        <mxCell id="jMYRhRSVrREB6778x-WR-16" value="" style="shape=flexArrow;endArrow=classic;html=1;rounded=0;" parent="1" edge="1">
          <mxGeometry width="50" height="50" relative="1" as="geometry">
            <mxPoint x="765" y="1070" as="sourcePoint" />
            <mxPoint x="845" y="1100" as="targetPoint" />
          </mxGeometry>
        </mxCell>
        <mxCell id="jMYRhRSVrREB6778x-WR-17" value="Field" style="swimlane;fontStyle=0;childLayout=stackLayout;horizontal=1;startSize=30;horizontalStack=0;resizeParent=1;resizeParentMax=0;resizeLast=0;collapsible=1;marginBottom=0;whiteSpace=wrap;html=1;" parent="1" vertex="1">
          <mxGeometry x="-200" y="800" width="140" height="60" as="geometry" />
        </mxCell>
        <mxCell id="jMYRhRSVrREB6778x-WR-18" value="private Field fields;" style="text;strokeColor=none;fillColor=none;align=left;verticalAlign=middle;spacingLeft=4;spacingRight=4;overflow=hidden;points=[[0,0.5],[1,0.5]];portConstraint=eastwest;rotatable=0;whiteSpace=wrap;html=1;" parent="jMYRhRSVrREB6778x-WR-17" vertex="1">
          <mxGeometry y="30" width="140" height="30" as="geometry" />
        </mxCell>
        <mxCell id="jMYRhRSVrREB6778x-WR-19" value="" style="shape=flexArrow;endArrow=classic;html=1;rounded=0;" parent="1" edge="1">
          <mxGeometry width="50" height="50" relative="1" as="geometry">
            <mxPoint x="30" y="770" as="sourcePoint" />
            <mxPoint x="-50" y="810" as="targetPoint" />
          </mxGeometry>
        </mxCell>
        <mxCell id="jMYRhRSVrREB6778x-WR-20" value="Fields" style="swimlane;fontStyle=0;childLayout=stackLayout;horizontal=1;startSize=30;horizontalStack=0;resizeParent=1;resizeParentMax=0;resizeLast=0;collapsible=1;marginBottom=0;whiteSpace=wrap;html=1;" parent="1" vertex="1">
          <mxGeometry x="-170" y="1020" width="140" height="60" as="geometry" />
        </mxCell>
        <mxCell id="jMYRhRSVrREB6778x-WR-21" value="private Fields fields;" style="text;strokeColor=none;fillColor=none;align=left;verticalAlign=middle;spacingLeft=4;spacingRight=4;overflow=hidden;points=[[0,0.5],[1,0.5]];portConstraint=eastwest;rotatable=0;whiteSpace=wrap;html=1;" parent="jMYRhRSVrREB6778x-WR-20" vertex="1">
          <mxGeometry y="30" width="140" height="30" as="geometry" />
        </mxCell>
        <mxCell id="jMYRhRSVrREB6778x-WR-22" value="" style="shape=flexArrow;endArrow=classic;html=1;rounded=0;" parent="1" edge="1">
          <mxGeometry width="50" height="50" relative="1" as="geometry">
            <mxPoint x="90" y="980" as="sourcePoint" />
            <mxPoint y="1028" as="targetPoint" />
          </mxGeometry>
        </mxCell>
        <mxCell id="RqQ3GGJJdriutGatGUng-1" value="" style="shape=flexArrow;endArrow=classic;html=1;rounded=0;" edge="1" parent="1" target="RqQ3GGJJdriutGatGUng-2">
          <mxGeometry width="50" height="50" relative="1" as="geometry">
            <mxPoint x="370" y="730" as="sourcePoint" />
            <mxPoint x="390" y="790" as="targetPoint" />
          </mxGeometry>
        </mxCell>
        <mxCell id="RqQ3GGJJdriutGatGUng-2" value="Fields" style="swimlane;fontStyle=0;childLayout=stackLayout;horizontal=1;startSize=30;horizontalStack=0;resizeParent=1;resizeParentMax=0;resizeLast=0;collapsible=1;marginBottom=0;whiteSpace=wrap;html=1;fillColor=#fff2cc;strokeColor=#d6b656;" vertex="1" parent="1">
          <mxGeometry x="325" y="790" width="140" height="90" as="geometry" />
        </mxCell>
        <mxCell id="RqQ3GGJJdriutGatGUng-3" value="- List &amp;lt;Associate&amp;gt;&amp;nbsp;&lt;br&gt;members" style="text;strokeColor=#d6b656;fillColor=#fff2cc;align=left;verticalAlign=middle;spacingLeft=4;spacingRight=4;overflow=hidden;points=[[0,0.5],[1,0.5]];portConstraint=eastwest;rotatable=0;whiteSpace=wrap;html=1;" vertex="1" parent="RqQ3GGJJdriutGatGUng-2">
          <mxGeometry y="30" width="140" height="30" as="geometry" />
        </mxCell>
        <mxCell id="RqQ3GGJJdriutGatGUng-4" value="- List &amp;lt;Field&amp;gt; fields" style="text;strokeColor=#d6b656;fillColor=#fff2cc;align=left;verticalAlign=middle;spacingLeft=4;spacingRight=4;overflow=hidden;points=[[0,0.5],[1,0.5]];portConstraint=eastwest;rotatable=0;whiteSpace=wrap;html=1;" vertex="1" parent="RqQ3GGJJdriutGatGUng-2">
          <mxGeometry y="60" width="140" height="30" as="geometry" />
        </mxCell>
        <mxCell id="RqQ3GGJJdriutGatGUng-6" value="" style="shape=flexArrow;endArrow=classic;html=1;rounded=0;" edge="1" parent="1" target="RqQ3GGJJdriutGatGUng-7">
          <mxGeometry width="50" height="50" relative="1" as="geometry">
            <mxPoint x="170" y="1010" as="sourcePoint" />
            <mxPoint x="160" y="1160" as="targetPoint" />
          </mxGeometry>
        </mxCell>
        <mxCell id="RqQ3GGJJdriutGatGUng-7" value="Field" style="swimlane;fontStyle=0;childLayout=stackLayout;horizontal=1;startSize=30;horizontalStack=0;resizeParent=1;resizeParentMax=0;resizeLast=0;collapsible=1;marginBottom=0;whiteSpace=wrap;html=1;fillColor=#fff2cc;strokeColor=#d6b656;" vertex="1" parent="1">
          <mxGeometry x="100" y="1130" width="140" height="90" as="geometry" />
        </mxCell>
        <mxCell id="RqQ3GGJJdriutGatGUng-8" value="- Map&amp;lt;String,Booking&amp;gt;&lt;br&gt;bookings" style="text;strokeColor=#d6b656;fillColor=#fff2cc;align=left;verticalAlign=middle;spacingLeft=4;spacingRight=4;overflow=hidden;points=[[0,0.5],[1,0.5]];portConstraint=eastwest;rotatable=0;whiteSpace=wrap;html=1;" vertex="1" parent="RqQ3GGJJdriutGatGUng-7">
          <mxGeometry y="30" width="140" height="30" as="geometry" />
        </mxCell>
        <mxCell id="RqQ3GGJJdriutGatGUng-9" value="- Features feature" style="text;strokeColor=#d6b656;fillColor=#fff2cc;align=left;verticalAlign=middle;spacingLeft=4;spacingRight=4;overflow=hidden;points=[[0,0.5],[1,0.5]];portConstraint=eastwest;rotatable=0;whiteSpace=wrap;html=1;" vertex="1" parent="RqQ3GGJJdriutGatGUng-7">
          <mxGeometry y="60" width="140" height="30" as="geometry" />
        </mxCell>
        <mxCell id="RqQ3GGJJdriutGatGUng-11" value="" style="shape=flexArrow;endArrow=classic;html=1;rounded=0;" edge="1" parent="1">
          <mxGeometry width="50" height="50" relative="1" as="geometry">
            <mxPoint x="400" y="1200" as="sourcePoint" />
            <mxPoint x="380" y="1250" as="targetPoint" />
          </mxGeometry>
        </mxCell>
        <mxCell id="RqQ3GGJJdriutGatGUng-12" value="Booking" style="swimlane;fontStyle=0;childLayout=stackLayout;horizontal=1;startSize=30;horizontalStack=0;resizeParent=1;resizeParentMax=0;resizeLast=0;collapsible=1;marginBottom=0;whiteSpace=wrap;html=1;fillColor=#fff2cc;strokeColor=#d6b656;" vertex="1" parent="1">
          <mxGeometry x="320" y="1260" width="140" height="60" as="geometry" />
        </mxCell>
        <mxCell id="RqQ3GGJJdriutGatGUng-13" value="- Associate associate" style="text;strokeColor=#d6b656;fillColor=#fff2cc;align=left;verticalAlign=middle;spacingLeft=4;spacingRight=4;overflow=hidden;points=[[0,0.5],[1,0.5]];portConstraint=eastwest;rotatable=0;whiteSpace=wrap;html=1;" vertex="1" parent="RqQ3GGJJdriutGatGUng-12">
          <mxGeometry y="30" width="140" height="30" as="geometry" />
        </mxCell>
        <mxCell id="RqQ3GGJJdriutGatGUng-16" value="classe innestata in Field" style="text;html=1;align=center;verticalAlign=middle;resizable=0;points=[];autosize=1;strokeColor=none;fillColor=none;" vertex="1" parent="1">
          <mxGeometry x="295" y="1330" width="150" height="30" as="geometry" />
        </mxCell>
        <mxCell id="RqQ3GGJJdriutGatGUng-17" value="classe innestata in Fields" style="text;html=1;align=center;verticalAlign=middle;resizable=0;points=[];autosize=1;strokeColor=none;fillColor=none;" vertex="1" parent="1">
          <mxGeometry x="10" y="568" width="160" height="30" as="geometry" />
        </mxCell>
        <mxCell id="RqQ3GGJJdriutGatGUng-18" value="" style="shape=flexArrow;endArrow=classic;html=1;rounded=0;" edge="1" parent="1" target="RqQ3GGJJdriutGatGUng-19">
          <mxGeometry width="50" height="50" relative="1" as="geometry">
            <mxPoint x="120" y="920" as="sourcePoint" />
            <mxPoint x="80" y="920" as="targetPoint" />
          </mxGeometry>
        </mxCell>
        <mxCell id="RqQ3GGJJdriutGatGUng-19" value="Field" style="swimlane;fontStyle=0;childLayout=stackLayout;horizontal=1;startSize=30;horizontalStack=0;resizeParent=1;resizeParentMax=0;resizeLast=0;collapsible=1;marginBottom=0;whiteSpace=wrap;html=1;fillColor=#fff2cc;strokeColor=#d6b656;" vertex="1" parent="1">
          <mxGeometry x="-60" y="890" width="140" height="60" as="geometry" />
        </mxCell>
        <mxCell id="RqQ3GGJJdriutGatGUng-20" value="Features feature" style="text;strokeColor=#d6b656;fillColor=#fff2cc;align=left;verticalAlign=middle;spacingLeft=4;spacingRight=4;overflow=hidden;points=[[0,0.5],[1,0.5]];portConstraint=eastwest;rotatable=0;whiteSpace=wrap;html=1;" vertex="1" parent="RqQ3GGJJdriutGatGUng-19">
          <mxGeometry y="30" width="140" height="30" as="geometry" />
        </mxCell>
        <mxCell id="RqQ3GGJJdriutGatGUng-25" value="- id_fields :Fields" style="text;strokeColor=#666666;fillColor=#f5f5f5;align=left;verticalAlign=middle;spacingLeft=4;spacingRight=4;overflow=hidden;points=[[0,0.5],[1,0.5]];portConstraint=eastwest;rotatable=0;whiteSpace=wrap;html=1;gradientColor=#b3b3b3;" vertex="1" parent="1">
          <mxGeometry x="600" y="1050" width="140" height="30" as="geometry" />
        </mxCell>
      </root>
    </mxGraphModel>
  </diagram>
</mxfile>
